:FULLY-SPECIFIED
:FORCE-ALL-JOINTS-BE-3DOF
:DEGREES
68
root 5.9749 16.7549 -28.021 10.7762 2.99688 -3.94689
lfemur -34.0506 13.3369 -16.9342
ltibia 50.2262 -0 0
lfoot -21.5302 -9.39289 0.0778659
ltoes 31.4974 -0 0
rfemur -16.3823 -1.3136 21.8566
rtibia 29.9672 -0 0
rfoot -27.5133 -17.2753 -0.00467472
rtoes -7.74355 0 0
lowerback -3.6542 2.57475 3.21257
upperback -1.47926 3.32634 -0.133218
thorax 0.713049 1.65671 -1.79576
lowerneck -9.96541 -2.57754 2.27447
upperneck -5.32989 -3.60124 2.02681
head -0.0206025 -1.81458 0.14585
lclavicle 3.05631e-15 1.64991e-14 0
lhumerus -40.9082 -12.2212 93.8948
lradius 44.0704 -0 0
lwrist 7.98735 0 0
lhand -10.8768 2.4464 0.00104257
lfingers 7.12502 -0 0
lthumb 15.1389 31.8708 0.000549091
rclavicle 3.05631e-15 1.64991e-14 0
rhumerus -39.3492 1.35941 -91.4027
rradius 42.7349 -0 0
rwrist 7.20679 0 0
rhand -24.4698 -21.7297 0.00661863
rfingers 7.12502 -0 0
rthumb 2.0236 -51.6972 0.00652517
69
root 5.9982 16.7513 -27.9878 10.7381 3.08242 -4.08427
lfemur -34.2325 13.0782 -16.527
ltibia 49.9555 -0 0
lfoot -21.3656 -8.59656 0.0916255
ltoes 30.8222 -0 0
rfemur -16.1205 -1.51869 21.9331
rtibia 29.7901 -0 0
rfoot -27.5858 -17.1667 -0.0054997
rtoes -7.76572 0 0
lowerback -3.61153 2.64615 3.22034
upperback -1.50581 3.42319 -0.0836537
thorax 0.664102 1.70412 -1.74866
lowerneck -9.98632 -2.6457 2.33355
upperneck -5.31482 -3.69865 1.99091
head -0.0150357 -1.86396 0.122088
lclavicle 3.05631e-15 1.64991e-14 0
lhumerus -41.0429 -11.98 93.7595
lradius 44.1275 -0 0
lwrist 8.085 0 0
lhand -10.7746 2.46358 0.00122656
lfingers 7.12502 -0 0
lthumb 15.2374 31.8802 0.000645992
rclavicle 3.05631e-15 1.64991e-14 0
rhumerus -39.2503 1.45461 -91.2338
rradius 42.8602 -0 0
rwrist 7.19185 0 0
rhand -24.336 -21.6463 0.00778669
rfingers 7.12502 -0 0
rthumb 2.15274 -51.6121 0.00767672
70
root 6.02149 16.7477 -27.9547 10.6997 3.16787 -4.22172
lfemur -34.4162 12.8207 -16.1195
ltibia 49.6848 -0 0
lfoot -21.2008 -7.8002 0.103096
ltoes 30.147 -0 0
rfemur -15.859 -1.72413 22.0087
rtibia 29.613 -0 0
rfoot -27.6583 -17.0581 -0.00618719
rtoes -7.78788 0 0
lowerback -3.56884 2.71755 3.22817
upperback -1.53227 3.52006 -0.0341291
thorax 0.615192 1.75157 -1.7016
lowerneck -10.0073 -2.71385 2.39267
upperneck -5.29969 -3.79605 1.95498
head -0.00944834 -1.91333 0.0983204
lclavicle 3.05631e-15 1.64991e-14 0
lhumerus -41.1782 -11.7392 93.6237
lradius 44.1847 -0 0
lwrist 8.18265 0 0
lhand -10.6723 2.48076 0.00137988
lfingers 7.12502 -0 0
lthumb 15.3359 31.8896 0.000726743
rclavicle 3.05631e-15 1.64991e-14 0
rhumerus -39.1511 1.54952 -91.0648
rradius 42.9856 -0 0
rwrist 7.17692 0 0
rhand -24.2023 -21.5629 0.00876008
rfingers 7.12502 -0 0
rthumb 2.28187 -51.5269 0.00863636
71
root 6.04479 16.7441 -27.9215 10.6612 3.25323 -4.35924
lfemur -34.6015 12.5645 -15.7115
ltibia 49.4141 -0 0
lfoot -21.0359 -7.0038 0.112275
ltoes 29.4719 -0 0
rfemur -15.5978 -1.92991 22.0834
rtibia 29.4359 -0 0
rfoot -27.7309 -16.9495 -0.00673719
rtoes -7.81005 0 0
lowerback -3.52614 2.78894 3.23605
upperback -1.55865 3.61695 0.0153558
thorax 0.56632 1.79906 -1.65458
lowerneck -10.0284 -2.78198 2.45181
upperneck -5.2845 -3.89344 1.91902
head -0.0038403 -1.96271 0.0745472
lclavicle 3.05631e-15 1.64991e-14 0
lhumerus -41.3139 -11.4987 93.4874
lradius 44.2418 -0 0
lwrist 8.2803 0 0
lhand -10.5701 2.49794 0.00150254
lfingers 7.12502 -0 0
lthumb 15.4344 31.899 0.000791344
rclavicle 3.05631e-15 1.64991e-14 0
rhumerus -39.0516 1.64413 -90.8956
rradius 43.111 -0 0
rwrist 7.16198 0 0
rhand -24.0686 -21.4795 0.0095388
rfingers 7.12502 -0 0
rthumb 2.41101 -51.4418 0.00940409
72
root 6.06809 16.7405 -27.8883 10.6224 3.33849 -4.49682
lfemur -34.7885 12.3096 -15.3031
ltibia 49.1434 -0 0
lfoot -20.8709 -6.20739 0.119161
ltoes 28.7967 -0 0
rfemur -15.3368 -2.13603 22.1571
rtibia 29.2588 -0 0
rfoot -27.8034 -16.8409 -0.00714968
rtoes -7.83221 0 0
lowerback -3.48343 2.86033 3.24399
upperback -1.58495 3.71386 0.0648014
thorax 0.517486 1.84659 -1.6076
lowerneck -10.0495 -2.85008 2.51098
upperneck -5.26925 -3.99082 1.88303
head 0.00178841 -2.01208 0.0507685
lclavicle 3.05631e-15 1.64991e-14 0
lhumerus -41.4501 -11.2585 93.3507
lradius 44.2989 -0 0
lwrist 8.37795 0 0
lhand -10.4678 2.51512 0.00159454
lfingers 7.12502 -0 0
lthumb 15.5329 31.9084 0.000839794
rclavicle 3.05631e-15 1.64991e-14 0
rhumerus -38.9518 1.73845 -90.7262
rradius 43.2363 -0 0
rwrist 7.14704 0 0
rhand -23.9349 -21.396 0.0101228
rfingers 7.12502 -0 0
rthumb 2.54015 -51.3566 0.00997988
73
root 6.09138 16.7369 -27.8551 10.5834 3.42366 -4.63448
lfemur -34.9772 12.056 -14.8942
ltibia 48.8727 -0 0
lfoot -20.7057 -5.41095 0.123753
ltoes 28.1215 -0 0
rfemur -15.076 -2.34248 22.23
rtibia 29.0817 -0 0
rfoot -27.8759 -16.7322 -0.00742469
rtoes -7.85438 0 0
lowerback -3.4407 2.93171 3.25198
upperback -1.61117 3.8108 0.114208
thorax 0.46869 1.89416 -1.56066
lowerneck -10.0707 -2.91816 2.57017
upperneck -5.25393 -4.0882 1.84702
head 0.00743779 -2.06145 0.0269841
lclavicle 3.05631e-15 1.64991e-14 0
lhumerus -41.5867 -11.0186 93.2134
lradius 44.3561 -0 0
lwrist 8.4756 0 0
lhand -10.3655 2.5323 0.00165587
lfingers 7.12502 -0 0
lthumb 15.6314 31.9178 0.000872095
rclavicle 3.05631e-15 1.64991e-14 0
rhumerus -38.8518 1.83248 -90.5567
rradius 43.3617 -0 0
rwrist 7.13211 0 0
rhand -23.8012 -21.3126 0.0105122
rfingers 7.12502 -0 0
rthumb 2.66929 -51.2715 0.0103637
74
root 6.11468 16.7333 -27.8219 10.5443 3.50873 -4.7722
lfemur -35.1675 11.8037 -14.4848
ltibia 48.602 -0 0
lfoot -20.5406 -4.61451 0.126049
ltoes 27.4463 -0 0
rfemur -14.8155 -2.54926 22.3018
rtibia 28.9046 -0 0
rfoot -27.9484 -16.6236 -0.00756219
rtoes -7.87654 0 0
lowerback -3.39797 3.00309 3.26002
upperback -1.63731 3.90776 0.163576
thorax 0.419931 1.94177 -1.51375
lowerneck -10.092 -2.98622 2.6294
upperneck -5.23855 -4.18556 1.81097
head 0.0131079 -2.11081 0.00319421
lclavicle 3.05631e-15 1.64991e-14 0
lhumerus -41.7239 -10.779 93.0758
lradius 44.4132 -0 0
lwrist 8.57325 0 0
lhand -10.2633 2.54948 0.00168653
lfingers 7.12502 -0 0
lthumb 15.7299 31.9272 0.000888245
rclavicle 3.05631e-15 1.64991e-14 0
rhumerus -38.7514 1.9262 -90.3869
rradius 43.4871 -0 0
rwrist 7.11717 0 0
rhand -23.6675 -21.2292 0.0107069
rfingers 7.12502 -0 0
rthumb 2.79843 -51.1863 0.0105557
75
root 6.13798 16.7297 -27.7887 10.5049 3.59372 -4.91
lfemur -35.3595 11.5528 -14.075
ltibia 48.3312 -0 0
lfoot -20.3754 -3.81806 0.126049
ltoes 26.7712 -0 0
rfemur -14.5551 -2.75637 22.3728
rtibia 28.7275 -0 0
rfoot -28.021 -16.515 -0.00756219
rtoes -7.89871 0 0
lowerback -3.35522 3.07446 3.26812
upperback -1.66337 4.00474 0.212905
thorax 0.37121 1.98942 -1.46689
lowerneck -10.1133 -3.05426 2.68866
upperneck -5.22311 -4.28291 1.77489
head 0.0187986 -2.16018 -0.0206014
lclavicle 3.05631e-15 1.64991e-14 0
lhumerus -41.8615 -10.5398 92.9376
lradius 44.4704 -0 0
lwrist 8.6709 0 0
lhand -10.161 2.56666 0.00168653
lfingers 7.12502 -0 0
lthumb 15.8283 31.9365 0.000888245
rclavicle 3.05631e-15 1.64991e-14 0
rhumerus -38.6508 2.01963 -90.2171
rradius 43.6124 -0 0
rwrist 7.10223 0 0
rhand -23.5337 -21.1458 0.0107069
rfingers 7.12502 -0 0
rthumb 2.92757 -51.1012 0.0105557
76
root 6.16128 16.7261 -27.7555 10.4653 3.6786 -5.04786
lfemur -35.5532 11.3032 -13.6646
ltibia 48.0605 -0 0
lfoot -20.2103 -3.02162 0.123753
ltoes 26.096 -0 0
rfemur -14.295 -2.96379 22.4428
rtibia 28.5504 -0 0
rfoot -28.0935 -16.4064 -0.00742469
rtoes -7.92087 0 0
lowerback -3.31245 3.14582 3.27627
upperback -1.68935 4.10174 0.262196
thorax 0.322526 2.03711 -1.42006
lowerneck -10.1347 -3.12227 2.74794
upperneck -5.2076 -4.38025 1.73878
head 0.0245101 -2.20954 -0.0444027
lclavicle 3.05631e-15 1.64991e-14 0
lhumerus -41.9995 -10.3008 92.799
lradius 44.5275 -0 0
lwrist 8.76855 0 0
lhand -10.0587 2.58384 0.00165587
lfingers 7.12502 -0 0
lthumb 15.9268 31.9459 0.000872095
rclavicle 3.05631e-15 1.64991e-14 0
rhumerus -38.5499 2.11276 -90.047
rradius 43.7378 -0 0
rwrist 7.08729 0 0
rhand -23.4 -21.0624 0.0105122
rfingers 7.12502 -0 0
rthumb 3.05671 -51.016 0.0103637
77
root 6.18457 16.7225 -27.7223 10.4255 3.7634 -5.1858
lfemur -35.7485 11.055 -13.2538
ltibia 47.7898 -0 0
lfoot -20.0451 -2.22518 0.119161
ltoes 25.4208 -0 0
rfemur -14.0351 -3.17153 22.5119
rtibia 28.3733 -0 0
rfoot -28.166 -16.2977 -0.00714968
rtoes -7.94304 0 0
lowerback -3.26968 3.21718 3.28448
upperback -1.71525 4.19877 0.311448
thorax 0.27388 2.08484 -1.37327
lowerneck -10.1562 -3.19026 2.80726
upperneck -5.19203 -4.47759 1.70263
head 0.0302423 -2.2589 -0.0682097
lclavicle 3.05631e-15 1.64991e-14 0
lhumerus -42.1381 -10.0623 92.6599
lradius 44.5847 -0 0
lwrist 8.8662 0 0
lhand -9.95648 2.60102 0.00159454
lfingers 7.12502 -0 0
lthumb 16.0253 31.9553 0.000839794
rclavicle 3.05631e-15 1.64991e-14 0
rhumerus -38.4487 2.20559 -89.8767
rradius 43.8632 -0 0
rwrist 7.07236 0 0
rhand -23.2663 -20.979 0.0101228
rfingers 7.12502 -0 0
rthumb 3.18585 -50.9309 0.00997988
78
root 6.20787 16.7189 -27.6891 10.3854 3.84809 -5.32382
lfemur -35.9454 10.8082 -12.8424
ltibia 47.5191 -0 0
lfoot -19.8801 -1.42877 0.112275
ltoes 24.7456 -0 0
rfemur -13.7753 -3.37959 22.5801
rtibia 28.1962 -0 0
rfoot -28.2385 -16.1891 -0.00673719
rtoes -7.9652 0 0
lowerback -3.22689 3.28853 3.29274
upperback -1.74106 4.29582 0.360663
thorax 0.225271 2.13261 -1.32653
lowerneck -10.1778 -3.25823 2.8666
upperneck -5.17639 -4.57491 1.66646
head 0.0359952 -2.30826 -0.0920224
lclavicle 3.05631e-15 1.64991e-14 0
lhumerus -42.2772 -9.824 92.5203
lradius 44.6418 -0 0
lwrist 8.96385 0 0
lhand -9.85422 2.6182 0.00150254
lfingers 7.12502 -0 0
lthumb 16.1238 31.9647 0.000791344
rclavicle 3.05631e-15 1.64991e-14 0
rhumerus -38.3472 2.29812 -89.7063
rradius 43.9885 -0 0
rwrist 7.05742 0 0
rhand -23.1326 -20.8955 0.0095388
rfingers 7.12502 -0 0
rthumb 3.31499 -50.8457 0.00940409
79
root 6.23117 16.7153 -27.6559 10.3452 3.93269 -5.4619
lfemur -36.144 10.5627 -12.4305
ltibia 47.2484 -0 0
lfoot -19.7152 -0.632374 0.103096
ltoes 24.0705 -0 0
rfemur -13.5158 -3.58794 22.6473
rtibia 28.0191 -0 0
rfoot -28.3111 -16.0805 -0.00618719
rtoes -7.98737 0 0
lowerback -3.18409 3.35987 3.30105
upperback -1.7668 4.39289 0.409841
thorax 0.1767 2.18042 -1.27982
lowerneck -10.1994 -3.32618 2.92598
upperneck -5.1607 -4.67222 1.63026
head 0.0417688 -2.35761 -0.115841
lclavicle 3.05631e-15 1.64991e-14 0
lhumerus -42.4167 -9.58608 92.3802
lradius 44.6989 -0 0
lwrist 9.0615 0 0
lhand -9.75196 2.63538 0.00137988
lfingers 7.12502 -0 0
lthumb 16.2223 31.9741 0.000726743
rclavicle 3.05631e-15 1.64991e-14 0
rhumerus -38.2455 2.39035 -89.5357
rradius 44.1139 -0 0
rwrist 7.04248 0 0
rhand -22.9989 -20.8121 0.00876008
rfingers 7.12502 -0 0
rthumb 3.44413 -50.7606 0.00863636
